<svg width="64" height="68" viewBox="0 0 64 68" fill="none" xmlns="http://www.w3.org/2000/svg">
<g filter="url(#filter0_d_11_327)">
<path d="M57.3333 32.6667C57.3333 39.2933 54.7333 45.3067 50.4667 49.72C46 54.4133 39.6667 57.3333 32.6667 57.3333C25.6667 57.3333 19.3333 54.4133 14.8667 49.72C10.6 45.3067 8 39.2933 8 32.6667C8 19.04 19.04 8 32.6667 8C46.2933 8 57.3333 19.04 57.3333 32.6667Z" stroke="white" stroke-width="4" stroke-miterlimit="10"/>
<path d="M32.6667 30.6667C37.4531 30.6667 41.3333 26.7865 41.3333 22C41.3333 17.2136 37.4531 13.3334 32.6667 13.3334C27.8802 13.3334 24 17.2136 24 22C24 26.7865 27.8802 30.6667 32.6667 30.6667Z" stroke="white" stroke-width="4" stroke-miterlimit="10"/>
<path d="M50.4667 49.72C46 54.4133 39.6667 57.3333 32.6667 57.3333C25.6667 57.3333 19.3334 54.4133 14.8667 49.72C17.24 42.1466 24.32 36.6666 32.6667 36.6666C41.0134 36.6666 48.0934 42.1466 50.4667 49.72Z" stroke="white" stroke-width="4" stroke-miterlimit="10"/>
</g>
<defs>
<filter id="filter0_d_11_327" x="-4" y="0" width="72" height="72" filterUnits="userSpaceOnUse" color-interpolation-filters="sRGB">
<feFlood flood-opacity="0" result="BackgroundImageFix"/>
<feColorMatrix in="SourceAlpha" type="matrix" values="0 0 0 0 0 0 0 0 0 0 0 0 0 0 0 0 0 0 127 0" result="hardAlpha"/>
<feOffset dy="4"/>
<feGaussianBlur stdDeviation="2"/>
<feComposite in2="hardAlpha" operator="out"/>
<feColorMatrix type="matrix" values="0 0 0 0 0 0 0 0 0 0 0 0 0 0 0 0 0 0 0.25 0"/>
<feBlend mode="normal" in2="BackgroundImageFix" result="effect1_dropShadow_11_327"/>
<feBlend mode="normal" in="SourceGraphic" in2="effect1_dropShadow_11_327" result="shape"/>
</filter>
</defs>
</svg>
