<svg width="65" height="64" viewBox="0 0 65 64" fill="none" xmlns="http://www.w3.org/2000/svg">
<path d="M53.0466 43.6134L49.2999 41.84L49.3399 27.4667C49.3399 20.3467 44.8732 14.2667 38.5933 11.8534V11.2C38.5799 7.96004 35.8599 5.33337 32.4999 5.33337C29.1399 5.33337 26.4199 7.96004 26.4199 11.2V11.9067C20.2333 14.3734 15.8333 20.4134 15.8333 27.4667L15.7933 41.84L11.9666 43.6C10.6866 44.0934 9.83325 45.3334 9.83325 46.7067V50.1467C9.83325 51.9867 11.3266 53.48 13.1666 53.48H25.8199C26.4733 56.56 29.2199 58.8934 32.4999 58.8934C35.7799 58.8934 38.5266 56.5734 39.1799 53.48H51.8332C53.6732 53.48 55.1666 51.9867 55.1666 50.1467V46.7067C55.1666 45.3334 54.3132 44.1067 53.0466 43.6134ZM32.4999 9.33337C33.4199 9.33337 34.1933 9.86671 34.4732 10.6C33.9266 10.5334 33.3799 10.5067 32.8466 10.4934C32.0866 10.4934 31.3132 10.52 30.5399 10.6C30.8066 9.86671 31.5799 9.33337 32.4999 9.33337ZM32.4999 54.8934C31.4599 54.8934 30.5533 54.32 30.0599 53.48H34.9399C34.4466 54.32 33.5399 54.8934 32.4999 54.8934ZM51.1666 49.48H13.8333V47.1467L17.6599 45.3734C18.9399 44.88 19.7933 43.6534 19.7933 42.2667L19.8333 27.4667C19.8333 20.44 25.5533 14.72 32.5799 14.72C39.6066 14.72 45.3266 20.44 45.3266 27.4667L45.2866 42.2667C45.2866 43.6534 46.1266 44.88 47.4066 45.3867L51.1666 47.1467V49.48Z" fill="white"/>
<path d="M31.1666 18.0533C26.2066 18.0533 22.1799 22.08 22.1799 27.04C22.1799 28.1467 23.0733 29.04 24.1799 29.04C25.2866 29.04 26.1799 28.1467 26.1799 27.04C26.1799 24.2933 28.4199 22.0533 31.1666 22.0533C32.2733 22.0533 33.1666 21.16 33.1666 20.0533C33.1666 18.9467 32.2733 18.0533 31.1666 18.0533Z" fill="white"/>
</svg>
